<svg width="50" height="50" viewBox="0 0 50 50" fill="none" xmlns="http://www.w3.org/2000/svg">
<path d="M25 43C18.75 43 13.225 39.8 10 35C10.075 30 20 27.25 25 27.25C30 27.25 39.925 30 40 35C38.3472 37.461 36.1146 39.4779 33.4989 40.8729C30.8832 42.268 27.9645 42.9985 25 43ZM25 7.5C26.9891 7.5 28.8968 8.29018 30.3033 9.6967C31.7098 11.1032 32.5 13.0109 32.5 15C32.5 16.9891 31.7098 18.8968 30.3033 20.3033C28.8968 21.7098 26.9891 22.5 25 22.5C23.0109 22.5 21.1032 21.7098 19.6967 20.3033C18.2902 18.8968 17.5 16.9891 17.5 15C17.5 13.0109 18.2902 11.1032 19.6967 9.6967C21.1032 8.29018 23.0109 7.5 25 7.5ZM25 0C21.717 0 18.4661 0.646644 15.4329 1.90301C12.3998 3.15938 9.6438 5.00087 7.32233 7.32233C2.63392 12.0107 0 18.3696 0 25C0 31.6304 2.63392 37.9893 7.32233 42.6777C9.6438 44.9991 12.3998 46.8406 15.4329 48.097C18.4661 49.3534 21.717 50 25 50C31.6304 50 37.9893 47.3661 42.6777 42.6777C47.3661 37.9893 50 31.6304 50 25C50 11.175 38.75 0 25 0Z" fill="white"/>
</svg>
