<svg width="50" height="50" viewBox="0 0 50 50" fill="none" xmlns="http://www.w3.org/2000/svg">
<path d="M35.4167 37.5C33.1042 37.5 31.25 39.3541 31.25 41.6666C31.25 42.7717 31.689 43.8315 32.4704 44.6129C33.2518 45.3943 34.3116 45.8333 35.4167 45.8333C36.5218 45.8333 37.5816 45.3943 38.363 44.6129C39.1444 43.8315 39.5834 42.7717 39.5834 41.6666C39.5834 40.5616 39.1444 39.5018 38.363 38.7204C37.5816 37.9389 36.5218 37.5 35.4167 37.5ZM2.08337 4.16663V8.33329H6.25004L13.75 24.1458L10.9167 29.25C10.6042 29.8333 10.4167 30.5208 10.4167 31.25C10.4167 32.355 10.8557 33.4148 11.6371 34.1962C12.4185 34.9776 13.4783 35.4166 14.5834 35.4166H39.5834V31.25H15.4584C15.3202 31.25 15.1878 31.1951 15.0901 31.0974C14.9924 30.9997 14.9375 30.8673 14.9375 30.7291C14.9375 30.625 14.9584 30.5416 15 30.4791L16.875 27.0833H32.3959C33.9584 27.0833 35.3334 26.2083 36.0417 24.9375L43.5 11.4583C43.6459 11.125 43.75 10.7708 43.75 10.4166C43.75 9.86409 43.5306 9.33419 43.1399 8.94349C42.7492 8.55279 42.2192 8.33329 41.6667 8.33329H10.8542L8.89587 4.16663H2.08337ZM14.5834 37.5C12.2709 37.5 10.4167 39.3541 10.4167 41.6666C10.4167 42.7717 10.8557 43.8315 11.6371 44.6129C12.4185 45.3943 13.4783 45.8333 14.5834 45.8333C15.6884 45.8333 16.7483 45.3943 17.5297 44.6129C18.3111 43.8315 18.75 42.7717 18.75 41.6666C18.75 40.5616 18.3111 39.5018 17.5297 38.7204C16.7483 37.9389 15.6884 37.5 14.5834 37.5Z" fill="#5C88CB"/>
</svg>
