<svg width="50" height="50" viewBox="0 0 50 50" fill="none" xmlns="http://www.w3.org/2000/svg">
<path d="M19.7917 6.25C23.3831 6.25 26.8275 7.67671 29.3671 10.2163C31.9066 12.7558 33.3333 16.2002 33.3333 19.7917C33.3333 23.1458 32.1042 26.2292 30.0833 28.6042L30.6458 29.1667H32.2917L42.7083 39.5833L39.5833 42.7083L29.1667 32.2917V30.6458L28.6042 30.0833C26.147 32.1808 23.0223 33.3331 19.7917 33.3333C16.2002 33.3333 12.7558 31.9066 10.2163 29.3671C7.67671 26.8275 6.25 23.3831 6.25 19.7917C6.25 16.2002 7.67671 12.7558 10.2163 10.2163C12.7558 7.67671 16.2002 6.25 19.7917 6.25ZM19.7917 10.4167C14.5833 10.4167 10.4167 14.5833 10.4167 19.7917C10.4167 25 14.5833 29.1667 19.7917 29.1667C25 29.1667 29.1667 25 29.1667 19.7917C29.1667 14.5833 25 10.4167 19.7917 10.4167Z" fill="white"/>
</svg>
